# xmcd
#
# Track frame offsets: 
#        150
#        27450
#        56515
#        82542
#        109947
#        152582
#        170385
#        211625
#
# Disc length: 3159 seconds
#
# Revision: 1
# Processed by: cddbd v1.5.2PL0 Copyright (c) Steve Scherf et al.
# Submitted via: ExactAudioCopy v0.95b2
#
DISCID=540c5508
DTITLE=Various Artist - Prestige Profiles Collector's Edition Vol. 10
DYEAR=2005
DGENRE=Jazz
TTITLE0=Gene Ammons, Sonny Stitt - You Talk That Talk
TTITLE1=Brother Jack McDuff - Rock Candy
TTITLE2=Willis Jackson - Please Mr. Jackson
TTITLE3=Richard "Groove" Holmes - Misty
TTITLE4=Houston Person - Goodness
TTITLE5=Roland Kirk - Kirk's  Work
TTITLE6=Jimmy Forrest - Soul Street
TTITLE7=Shirley Scott - Soul Shoutin'
EXTD=YEAR: 2005
EXTT0=
EXTT1=
EXTT2=
EXTT3=
EXTT4=
EXTT5=
EXTT6=
EXTT7=
PLAYORDER=
